<svg width="146" height="46" viewBox="0 0 146 46" fill="none" xmlns="http://www.w3.org/2000/svg">
<path d="M56.9435 20V19.77L57.4035 19.609C57.7102 19.517 57.9095 19.379 58.0015 19.195C58.1088 19.011 58.1625 18.7657 58.1625 18.459V6.407C58.1625 6.10033 58.1088 5.855 58.0015 5.671C57.8942 5.487 57.6872 5.34133 57.3805 5.234L56.9435 5.05V4.82H62.5325C64.8172 4.82 66.4655 5.24167 67.4775 6.085C68.5048 6.913 69.0185 8.00933 69.0185 9.374C69.0185 10.248 68.8038 11.053 68.3745 11.789C67.9605 12.5097 67.2705 13.0847 66.3045 13.514C65.3385 13.9433 64.0352 14.158 62.3945 14.158H61.6125V18.39C61.6125 18.988 61.9115 19.379 62.5095 19.563L63.1995 19.77V20H56.9435ZM61.6125 13.698H62.4865C63.2378 13.698 63.8512 13.5753 64.3265 13.33C64.8018 13.0847 65.1545 12.6553 65.3845 12.042C65.6145 11.4287 65.7295 10.5777 65.7295 9.489C65.7295 8.385 65.5992 7.52633 65.3385 6.913C65.0932 6.29967 64.7252 5.878 64.2345 5.648C63.7438 5.40267 63.1305 5.28 62.3945 5.28H61.6125V13.698ZM73.0133 20.345C72.124 20.345 71.3726 20.092 70.7593 19.586C70.1613 19.08 69.8623 18.3517 69.8623 17.401C69.8623 16.6803 70.2303 16.021 70.9663 15.423C71.7023 14.8097 72.86 14.3497 74.4393 14.043C74.6846 13.997 74.9606 13.951 75.2673 13.905C75.574 13.8437 75.896 13.7823 76.2333 13.721V11.904C76.2333 10.8613 76.103 10.133 75.8423 9.719C75.597 9.28967 75.206 9.075 74.6693 9.075C74.3013 9.075 74.01 9.19767 73.7953 9.443C73.5806 9.673 73.4426 10.0793 73.3813 10.662L73.3353 10.915C73.3046 11.5743 73.1436 12.0573 72.8523 12.364C72.561 12.6707 72.2006 12.824 71.7713 12.824C71.3726 12.824 71.043 12.7013 70.7823 12.456C70.5216 12.2107 70.3913 11.881 70.3913 11.467C70.3913 10.8383 70.606 10.3093 71.0353 9.88C71.48 9.45067 72.0626 9.12867 72.7833 8.914C73.504 8.69933 74.286 8.592 75.1293 8.592C76.494 8.592 77.5443 8.92933 78.2803 9.604C79.0316 10.2633 79.4073 11.3443 79.4073 12.847V17.93C79.4073 18.62 79.7293 18.965 80.3733 18.965H80.8793L81.0863 19.149C80.795 19.517 80.473 19.8007 80.1203 20C79.783 20.1993 79.3 20.299 78.6713 20.299C77.9966 20.299 77.46 20.1457 77.0613 19.839C76.678 19.517 76.425 19.0953 76.3023 18.574C75.8423 19.0647 75.367 19.4863 74.8763 19.839C74.401 20.1763 73.78 20.345 73.0133 20.345ZM74.4163 18.942C74.723 18.942 75.0066 18.873 75.2673 18.735C75.5433 18.5817 75.8653 18.3517 76.2333 18.045V14.181C76.08 14.2117 75.9266 14.2423 75.7733 14.273C75.62 14.3037 75.4436 14.3343 75.2443 14.365C74.539 14.549 73.9716 14.8633 73.5423 15.308C73.1283 15.7373 72.9213 16.32 72.9213 17.056C72.9213 17.6847 73.067 18.16 73.3583 18.482C73.6496 18.7887 74.0023 18.942 74.4163 18.942ZM85.9296 20.345C84.9483 20.345 84.1816 20.0997 83.6296 19.609C83.0929 19.1183 82.8246 18.3363 82.8246 17.263V9.397H81.2376V9.167L81.7896 9.075C82.2649 8.96767 82.6713 8.81433 83.0086 8.615C83.3613 8.41567 83.7063 8.14733 84.0436 7.81L85.9296 5.717H86.1596L86.0906 8.937H88.6666V9.397H86.0676V17.677C86.0676 18.2137 86.1826 18.62 86.4126 18.896C86.6579 19.172 86.9646 19.31 87.3326 19.31C87.6546 19.31 87.9383 19.2333 88.1836 19.08C88.4289 18.9113 88.6743 18.689 88.9196 18.413L89.1496 18.643C88.8429 19.1643 88.4213 19.5783 87.8846 19.885C87.3479 20.1917 86.6963 20.345 85.9296 20.345ZM94.2177 20.345C93.2364 20.345 92.4697 20.0997 91.9177 19.609C91.381 19.1183 91.1127 18.3363 91.1127 17.263V9.397H89.5257V9.167L90.0777 9.075C90.553 8.96767 90.9594 8.81433 91.2967 8.615C91.6494 8.41567 91.9944 8.14733 92.3317 7.81L94.2177 5.717H94.4477L94.3787 8.937H96.9547V9.397H94.3557V17.677C94.3557 18.2137 94.4707 18.62 94.7007 18.896C94.946 19.172 95.2527 19.31 95.6207 19.31C95.9427 19.31 96.2264 19.2333 96.4717 19.08C96.717 18.9113 96.9624 18.689 97.2077 18.413L97.4377 18.643C97.131 19.1643 96.7094 19.5783 96.1727 19.885C95.636 20.1917 94.9844 20.345 94.2177 20.345ZM103.864 8.592C104.861 8.592 105.712 8.799 106.417 9.213C107.122 9.61167 107.659 10.1637 108.027 10.869C108.41 11.559 108.602 12.3487 108.602 13.238C108.602 13.4067 108.594 13.583 108.579 13.767C108.564 13.9357 108.533 14.089 108.487 14.227H101.633C101.648 15.883 101.94 17.079 102.507 17.815C103.09 18.5357 103.948 18.896 105.083 18.896C105.85 18.896 106.471 18.7733 106.946 18.528C107.421 18.2827 107.866 17.9223 108.28 17.447L108.51 17.654C108.035 18.4973 107.398 19.1567 106.601 19.632C105.819 20.1073 104.876 20.345 103.772 20.345C102.683 20.345 101.717 20.115 100.874 19.655C100.031 19.1797 99.3712 18.505 98.8959 17.631C98.4205 16.757 98.1829 15.7143 98.1829 14.503C98.1829 13.2457 98.4589 12.18 99.0109 11.306C99.5629 10.4167 100.268 9.742 101.127 9.282C102.001 8.822 102.913 8.592 103.864 8.592ZM103.795 9.052C103.35 9.052 102.967 9.19 102.645 9.466C102.338 9.72667 102.093 10.202 101.909 10.892C101.74 11.5667 101.648 12.525 101.633 13.767H105.566C105.719 12.0957 105.658 10.892 105.382 10.156C105.106 9.42 104.577 9.052 103.795 9.052ZM109.748 20V19.77L110.093 19.678C110.4 19.586 110.607 19.448 110.714 19.264C110.837 19.08 110.898 18.8423 110.898 18.551V11.352C110.898 11.0147 110.837 10.7693 110.714 10.616C110.607 10.4473 110.4 10.3323 110.093 10.271L109.748 10.179V9.949L113.704 8.615L113.934 8.845L114.141 10.823V11.007C114.356 10.5777 114.632 10.1867 114.969 9.834C115.322 9.466 115.705 9.167 116.119 8.937C116.548 8.707 116.97 8.592 117.384 8.592C117.967 8.592 118.411 8.753 118.718 9.075C119.025 9.397 119.178 9.80333 119.178 10.294C119.178 10.8153 119.025 11.2217 118.718 11.513C118.427 11.789 118.074 11.927 117.66 11.927C117.016 11.927 116.449 11.605 115.958 10.961L115.912 10.915C115.759 10.7003 115.582 10.5853 115.383 10.57C115.184 10.5393 115 10.6313 114.831 10.846C114.678 10.984 114.547 11.1527 114.44 11.352C114.348 11.536 114.256 11.7507 114.164 11.996V18.413C114.164 19.0263 114.432 19.4097 114.969 19.563L115.705 19.77V20H109.748ZM119.9 20V19.77L120.222 19.678C120.759 19.5247 121.027 19.149 121.027 18.551V11.352C121.027 11.0147 120.974 10.7693 120.866 10.616C120.759 10.4473 120.552 10.3323 120.245 10.271L119.9 10.179V9.949L123.833 8.615L124.063 8.845L124.247 10.225C124.784 9.74967 125.39 9.35867 126.064 9.052C126.739 8.74533 127.406 8.592 128.065 8.592C129.077 8.592 129.852 8.868 130.388 9.42C130.94 9.972 131.216 10.8153 131.216 11.95V18.574C131.216 19.172 131.508 19.5477 132.09 19.701L132.297 19.77V20H126.869V19.77L127.168 19.678C127.705 19.5093 127.973 19.1337 127.973 18.551V11.214C127.973 10.2327 127.483 9.742 126.501 9.742C125.827 9.742 125.091 10.0793 124.293 10.754V18.574C124.293 19.172 124.562 19.5477 125.098 19.701L125.305 19.77V20H119.9ZM137.176 20.345C136.425 20.345 135.75 20.253 135.152 20.069C134.554 19.9003 134.002 19.6857 133.496 19.425L133.519 16.688H133.749L134.531 18.068C134.869 18.6813 135.237 19.1413 135.635 19.448C136.049 19.7393 136.571 19.885 137.199 19.885C137.935 19.885 138.526 19.724 138.97 19.402C139.43 19.0647 139.66 18.62 139.66 18.068C139.66 17.562 139.499 17.148 139.177 16.826C138.855 16.504 138.257 16.2127 137.383 15.952L136.417 15.653C135.482 15.377 134.746 14.9477 134.209 14.365C133.673 13.7823 133.404 13.0693 133.404 12.226C133.404 11.214 133.803 10.3553 134.6 9.65C135.398 8.94467 136.54 8.592 138.027 8.592C138.625 8.592 139.185 8.661 139.706 8.799C140.243 8.92167 140.757 9.11333 141.247 9.374L141.109 11.858H140.879L140.074 10.432C139.783 9.926 139.492 9.57333 139.2 9.374C138.924 9.15933 138.503 9.052 137.935 9.052C137.414 9.052 136.923 9.19767 136.463 9.489C136.003 9.78033 135.773 10.1943 135.773 10.731C135.773 11.2523 135.965 11.6663 136.348 11.973C136.747 12.2797 137.33 12.5633 138.096 12.824L139.131 13.123C140.235 13.4603 141.025 13.928 141.5 14.526C141.976 15.1087 142.213 15.814 142.213 16.642C142.213 17.7613 141.769 18.6583 140.879 19.333C140.005 20.0077 138.771 20.345 137.176 20.345ZM56.9435 43V42.77L57.3575 42.632C57.6642 42.5247 57.8712 42.379 57.9785 42.195C58.0858 42.011 58.1395 41.7657 58.1395 41.459C58.1548 40.539 58.1625 39.6113 58.1625 38.676C58.1625 37.7407 58.1625 36.8053 58.1625 35.87V34.95C58.1625 34.03 58.1625 33.11 58.1625 32.19C58.1625 31.2547 58.1548 30.327 58.1395 29.407C58.1395 29.1003 58.0935 28.855 58.0015 28.671C57.9248 28.487 57.7408 28.3413 57.4495 28.234L56.9435 28.05V27.82H68.0755L68.2365 31.638H68.0065L66.6955 29.223C66.5422 28.9317 66.3658 28.7017 66.1665 28.533C65.9672 28.3643 65.6912 28.28 65.3385 28.28H61.6355C61.6202 29.3687 61.6125 30.4803 61.6125 31.615C61.6125 32.7497 61.6125 33.8767 61.6125 34.996H64.0045C64.3572 34.996 64.6178 34.9193 64.7865 34.766C64.9552 34.6127 65.1162 34.3903 65.2695 34.099L65.7525 33.225H65.9825V37.25H65.7525L65.2465 36.376C65.0932 36.1 64.9322 35.8777 64.7635 35.709C64.6102 35.5403 64.3572 35.456 64.0045 35.456H61.6125C61.6125 36.5293 61.6125 37.5567 61.6125 38.538C61.6125 39.504 61.6202 40.4547 61.6355 41.39C61.6355 41.988 61.9268 42.379 62.5095 42.563L63.1995 42.77V43H56.9435ZM73.9245 43.345C72.7592 43.345 71.7472 43.1073 70.8885 42.632C70.0298 42.1413 69.3628 41.4513 68.8875 40.562C68.4275 39.6727 68.1975 38.63 68.1975 37.434C68.1975 36.238 68.4428 35.203 68.9335 34.329C69.4395 33.455 70.1218 32.7803 70.9805 32.305C71.8545 31.8297 72.8358 31.592 73.9245 31.592C75.0132 31.592 75.9868 31.8297 76.8455 32.305C77.7042 32.765 78.3788 33.432 78.8695 34.306C79.3755 35.18 79.6285 36.2227 79.6285 37.434C79.6285 38.6453 79.3908 39.6957 78.9155 40.585C78.4555 41.459 77.7962 42.1413 76.9375 42.632C76.0942 43.1073 75.0898 43.345 73.9245 43.345ZM73.9245 42.885C74.4612 42.885 74.8905 42.7317 75.2125 42.425C75.5345 42.1183 75.7645 41.574 75.9025 40.792C76.0558 40.01 76.1325 38.906 76.1325 37.48C76.1325 36.0387 76.0558 34.927 75.9025 34.145C75.7645 33.363 75.5345 32.8187 75.2125 32.512C74.8905 32.2053 74.4612 32.052 73.9245 32.052C73.3878 32.052 72.9508 32.2053 72.6135 32.512C72.2915 32.8187 72.0538 33.363 71.9005 34.145C71.7625 34.927 71.6935 36.0387 71.6935 37.48C71.6935 38.906 71.7625 40.01 71.9005 40.792C72.0538 41.574 72.2915 42.1183 72.6135 42.425C72.9508 42.7317 73.3878 42.885 73.9245 42.885ZM80.6387 43V42.77L80.9837 42.678C81.2904 42.586 81.4974 42.448 81.6047 42.264C81.7274 42.08 81.7887 41.8423 81.7887 41.551V34.352C81.7887 34.0147 81.7274 33.7693 81.6047 33.616C81.4974 33.4473 81.2904 33.3323 80.9837 33.271L80.6387 33.179V32.949L84.5947 31.615L84.8247 31.845L85.0317 33.823V34.007C85.2464 33.5777 85.5224 33.1867 85.8597 32.834C86.2124 32.466 86.5957 32.167 87.0097 31.937C87.439 31.707 87.8607 31.592 88.2747 31.592C88.8574 31.592 89.302 31.753 89.6087 32.075C89.9154 32.397 90.0687 32.8033 90.0687 33.294C90.0687 33.8153 89.9154 34.2217 89.6087 34.513C89.3174 34.789 88.9647 34.927 88.5507 34.927C87.9067 34.927 87.3394 34.605 86.8487 33.961L86.8027 33.915C86.6494 33.7003 86.473 33.5853 86.2737 33.57C86.0744 33.5393 85.8904 33.6313 85.7217 33.846C85.5684 33.984 85.438 34.1527 85.3307 34.352C85.2387 34.536 85.1467 34.7507 85.0547 34.996V41.413C85.0547 42.0263 85.323 42.4097 85.8597 42.563L86.5957 42.77V43H80.6387ZM92.8458 43V42.77L93.5358 42.586C94.0724 42.4327 94.3408 42.0493 94.3408 41.436V37.066L90.5458 29.338C90.4078 29.0313 90.2774 28.8013 90.1548 28.648C90.0474 28.4947 89.8788 28.3643 89.6488 28.257L89.2348 28.05V27.82H95.3988V28.05L94.9848 28.211C94.6474 28.349 94.4634 28.5407 94.4328 28.786C94.4021 29.016 94.4634 29.3073 94.6168 29.66L97.3308 35.686L100.367 29.43C100.489 29.1847 100.535 28.9317 100.505 28.671C100.489 28.4103 100.328 28.2417 100.022 28.165L99.6998 28.05V27.82H102.46V28.05L102.023 28.211C101.731 28.3183 101.517 28.4717 101.379 28.671C101.241 28.855 101.103 29.0927 100.965 29.384L97.8138 36.008V41.436C97.8138 41.7427 97.8674 41.9957 97.9748 42.195C98.0974 42.379 98.3044 42.5093 98.5958 42.586L99.3088 42.77V43H92.8458ZM106.628 43.345C105.462 43.345 104.45 43.1073 103.592 42.632C102.733 42.1413 102.066 41.4513 101.591 40.562C101.131 39.6727 100.901 38.63 100.901 37.434C100.901 36.238 101.146 35.203 101.637 34.329C102.143 33.455 102.825 32.7803 103.684 32.305C104.558 31.8297 105.539 31.592 106.628 31.592C107.716 31.592 108.69 31.8297 109.549 32.305C110.407 32.765 111.082 33.432 111.573 34.306C112.079 35.18 112.332 36.2227 112.332 37.434C112.332 38.6453 112.094 39.6957 111.619 40.585C111.159 41.459 110.499 42.1413 109.641 42.632C108.797 43.1073 107.793 43.345 106.628 43.345ZM106.628 42.885C107.164 42.885 107.594 42.7317 107.916 42.425C108.238 42.1183 108.468 41.574 108.606 40.792C108.759 40.01 108.836 38.906 108.836 37.48C108.836 36.0387 108.759 34.927 108.606 34.145C108.468 33.363 108.238 32.8187 107.916 32.512C107.594 32.2053 107.164 32.052 106.628 32.052C106.091 32.052 105.654 32.2053 105.317 32.512C104.995 32.8187 104.757 33.363 104.604 34.145C104.466 34.927 104.397 36.0387 104.397 37.48C104.397 38.906 104.466 40.01 104.604 40.792C104.757 41.574 104.995 42.1183 105.317 42.425C105.654 42.7317 106.091 42.885 106.628 42.885ZM117.415 43.345C116.817 43.345 116.265 43.23 115.759 43C115.268 42.77 114.877 42.402 114.586 41.896C114.31 41.3747 114.18 40.6923 114.195 39.849L114.264 33.938C114.264 33.5853 114.203 33.3323 114.08 33.179C113.957 33.0257 113.766 32.9183 113.505 32.857L113.229 32.765V32.535L117.346 31.73L117.576 31.96L117.461 35.226V40.769C117.461 41.2597 117.599 41.62 117.875 41.85C118.166 42.08 118.527 42.195 118.956 42.195C119.385 42.195 119.769 42.1337 120.106 42.011C120.443 41.8883 120.781 41.7043 121.118 41.459L121.21 33.961C121.21 33.6083 121.156 33.363 121.049 33.225C120.942 33.0717 120.742 32.9643 120.451 32.903L120.221 32.834V32.604L124.246 31.73L124.476 31.96L124.407 35.226V41.459C124.407 41.7963 124.453 42.057 124.545 42.241C124.637 42.425 124.836 42.5783 125.143 42.701L125.373 42.77V43L121.348 43.23L121.141 41.873C120.635 42.287 120.083 42.6397 119.485 42.931C118.902 43.207 118.212 43.345 117.415 43.345Z" fill="#121110"/>
<path d="M1.1785 33V32.72L1.7385 32.524C2.11183 32.412 2.3545 32.244 2.4665 32.02C2.59717 31.796 2.6625 31.4973 2.6625 31.124V16.452C2.6625 16.0787 2.59717 15.78 2.4665 15.556C2.33583 15.332 2.08383 15.1547 1.7105 15.024L1.1785 14.8V14.52H7.9825C10.7638 14.52 12.7705 15.0333 14.0025 16.06C15.2532 17.068 15.8785 18.4027 15.8785 20.064C15.8785 21.128 15.6172 22.108 15.0945 23.004C14.5905 23.8813 13.7505 24.5813 12.5745 25.104C11.3985 25.6267 9.81183 25.888 7.8145 25.888H6.8625V31.04C6.8625 31.768 7.2265 32.244 7.9545 32.468L8.7945 32.72V33H1.1785ZM6.8625 25.328H7.9265C8.84117 25.328 9.58783 25.1787 10.1665 24.88C10.7452 24.5813 11.1745 24.0587 11.4545 23.312C11.7345 22.5653 11.8745 21.5293 11.8745 20.204C11.8745 18.86 11.7158 17.8147 11.3985 17.068C11.0998 16.3213 10.6518 15.808 10.0545 15.528C9.45717 15.2293 8.7105 15.08 7.8145 15.08H6.8625V25.328ZM16.7371 33V32.72L17.2411 32.552C17.6144 32.4213 17.8664 32.244 17.9971 32.02C18.1278 31.796 18.1931 31.4973 18.1931 31.124C18.2118 30.004 18.2211 28.8747 18.2211 27.736C18.2211 26.5973 18.2211 25.4587 18.2211 24.32V23.2C18.2211 22.08 18.2211 20.96 18.2211 19.84C18.2211 18.7013 18.2118 17.572 18.1931 16.452C18.1931 16.0787 18.1371 15.78 18.0251 15.556C17.9318 15.332 17.7078 15.1547 17.3531 15.024L16.7371 14.8V14.52H30.2891L30.4851 19.168H30.2051L28.6091 16.228C28.4224 15.8733 28.2078 15.5933 27.9651 15.388C27.7224 15.1827 27.3864 15.08 26.9571 15.08H22.4491C22.4304 16.4053 22.4211 17.7587 22.4211 19.14C22.4211 20.5213 22.4211 21.8933 22.4211 23.256H25.3331C25.7624 23.256 26.0798 23.1627 26.2851 22.976C26.4904 22.7893 26.6864 22.5187 26.8731 22.164L27.4611 21.1H27.7411V26H27.4611L26.8451 24.936C26.6584 24.6 26.4624 24.3293 26.2571 24.124C26.0704 23.9187 25.7624 23.816 25.3331 23.816H22.4211C22.4211 25.1227 22.4211 26.3733 22.4211 27.568C22.4211 28.744 22.4304 29.9013 22.4491 31.04C22.4491 31.768 22.8038 32.244 23.5131 32.468L24.3531 32.72V33H16.7371ZM40.5154 33.504C39.0968 33.504 37.8368 33.252 36.7354 32.748C35.6528 32.244 34.8034 31.4507 34.1874 30.368C33.5901 29.2667 33.2914 27.82 33.2914 26.028V16.368C33.2914 15.6587 32.9274 15.192 32.1994 14.968L31.5834 14.8V14.52H39.3394V14.8L38.5274 15.024C37.8368 15.192 37.4914 15.6587 37.4914 16.424V26.756C37.4914 28.492 37.8554 29.78 38.5834 30.62C39.3114 31.4413 40.3568 31.852 41.7194 31.852C43.1381 31.852 44.2581 31.4133 45.0794 30.536C45.9194 29.6587 46.3394 28.4173 46.3394 26.812V16.536C46.3394 16.1627 46.2741 15.836 46.1434 15.556C46.0314 15.2573 45.7888 15.0613 45.4154 14.968L44.7154 14.8V14.52H48.6354V14.8L47.8794 14.996C47.5248 15.0707 47.2914 15.248 47.1794 15.528C47.0674 15.808 47.0114 16.1347 47.0114 16.508V26.756C47.0114 28.1187 46.7408 29.3133 46.1994 30.34C45.6581 31.348 44.9021 32.132 43.9314 32.692C42.9608 33.2333 41.8221 33.504 40.5154 33.504Z" fill="#A86E30"/>
</svg>
