<svg width="24" height="18" viewBox="0 0 24 18" fill="none" xmlns="http://www.w3.org/2000/svg">
<path d="M21.921 11.5658C22.1492 11.6579 22.3289 11.7895 22.4604 11.9605C22.5921 12.1316 22.658 12.3289 22.658 12.5526V16.9342C22.658 17.2368 22.5439 17.49 22.3158 17.6941C22.0876 17.898 21.7983 18 21.4474 18H2.55257C2.20169 18 1.91222 17.898 1.68415 17.6941C1.45608 17.4901 1.34204 17.2368 1.34204 16.9342V12.5526C1.34204 12.3289 1.40783 12.1283 1.53941 11.9507C1.67099 11.773 1.85958 11.6447 2.1052 11.5657L9.49994 8.98026C8.6052 8.58553 7.89029 8.01645 7.3552 7.27303C6.82011 6.52961 6.55257 5.69079 6.55257 4.75658C6.55257 4.09868 6.69292 3.48026 6.97362 2.90132C7.25432 2.32237 7.64029 1.81908 8.13151 1.39145C8.62274 0.963816 9.20169 0.625 9.86836 0.375C10.535 0.125 11.2456 0 11.9999 0C12.7543 0 13.4648 0.125 14.1315 0.375C14.7982 0.625 15.3772 0.963816 15.8684 1.39145C16.3596 1.81908 16.7456 2.32237 17.0263 2.90132C17.307 3.48026 17.4473 4.09868 17.4473 4.75658C17.4473 5.66447 17.1843 6.49013 16.658 7.23355C16.1316 7.97697 15.4387 8.55263 14.5789 8.96053L21.921 11.5658Z" fill="#CDA274"/>
</svg>
