<svg
        className="author-edit"
            width="52"
            height="51"
            viewBox="0 0 52 51"
            fill="none"
            xmlns="http://www.w3.org/2000/svg">
            <path
                d="M49.8301 1.55196C48.769 0.518736 47.3759 0 45.9829 0C44.6686 0 43.3543 0.461765 
42.3187 1.38172C42.1942 1.49237 42.0735 1.60755 41.9566 1.72629C41.9479 1.73479 
41.9348 1.73904 41.9261 1.74754L2.57188 40.0617C2.43651 40.1978 2.33607 40.3636 
2.28367 40.5507L0.0390973 48.7016C-0.0657075 49.0758 0.0434649 49.4755 0.327311 
49.7519C0.541287 49.9602 0.825133 50.0708 1.11771 50.0708C1.21379 50.0708 1.30986 
50.058 1.40593 50.0325L9.77721 47.847C9.96935 47.796 10.1397 47.6982 10.2794 
47.5621L49.6292 9.25221C49.6531 9.22894 49.6675 9.19796 49.6914 9.17469C49.7662 
9.10185 49.8177 9.05171 49.8249 9.0447C49.8255 9.04413 49.826 9.04357 49.8266 
9.043C51.9568 6.97224 51.9565 3.61811 49.8301 1.55196ZM48.2493 3.09116C49.4982 
4.30721 49.4982 6.28861 48.2493 7.50466C47.714 8.01975 46.8689 8.0229 46.3366 
7.50466L43.7148 4.95187C43.1917 4.44256 43.1934 3.60047 43.7165 3.09116C43.7176 
3.09007 43.7171 3.09061 43.7182 3.08951C44.3206 2.49954 45.1278 2.17699 45.9829 
2.17699C46.8388 2.17699 47.6423 2.50439 48.2493 3.09116ZM3.37304 44.999C3.66868 
43.9278 5.00459 43.5657 5.80079 44.3409C6.61562 45.1343 6.25159 46.5134 5.15135 
46.8013C4.06221 47.0863 3.07353 46.0843 3.37304 44.999Z"
                fill="black" />
        </svg>