<svg width="297" height="78" viewBox="0 0 297 78" fill="none" xmlns="http://www.w3.org/2000/svg">
<path d="M96.012 31V30.54L96.932 30.218C97.5453 30.034 97.944 29.758 98.128 29.39C98.3427 29.022 98.45 28.5313 98.45 27.918V3.814C98.45 3.20067 98.3427 2.71 98.128 2.342C97.9133 1.974 97.4993 1.68266 96.886 1.468L96.012 1.1V0.639999H107.19C111.759 0.639999 115.056 1.48333 117.08 3.17C119.135 4.826 120.162 7.01867 120.162 9.748C120.162 11.496 119.733 13.106 118.874 14.578C118.046 16.0193 116.666 17.1693 114.734 18.028C112.802 18.8867 110.195 19.316 106.914 19.316H105.35V27.78C105.35 28.976 105.948 29.758 107.144 30.126L108.524 30.54V31H96.012ZM105.35 18.396H107.098C108.601 18.396 109.827 18.1507 110.778 17.66C111.729 17.1693 112.434 16.3107 112.894 15.084C113.354 13.8573 113.584 12.1553 113.584 9.978C113.584 7.77 113.323 6.05267 112.802 4.826C112.311 3.59933 111.575 2.756 110.594 2.296C109.613 1.80533 108.386 1.56 106.914 1.56H105.35V18.396ZM128.152 31.69C126.373 31.69 124.87 31.184 123.644 30.172C122.448 29.16 121.85 27.7033 121.85 25.802C121.85 24.3607 122.586 23.042 124.058 21.846C125.53 20.6193 127.845 19.6993 131.004 19.086C131.494 18.994 132.046 18.902 132.66 18.81C133.273 18.6873 133.917 18.5647 134.592 18.442V14.808C134.592 12.7227 134.331 11.266 133.81 10.438C133.319 9.57933 132.537 9.15 131.464 9.15C130.728 9.15 130.145 9.39533 129.716 9.886C129.286 10.346 129.01 11.1587 128.888 12.324L128.796 12.83C128.734 14.1487 128.412 15.1147 127.83 15.728C127.247 16.3413 126.526 16.648 125.668 16.648C124.87 16.648 124.211 16.4027 123.69 15.912C123.168 15.4213 122.908 14.762 122.908 13.934C122.908 12.6767 123.337 11.6187 124.196 10.76C125.085 9.90133 126.25 9.25733 127.692 8.828C129.133 8.39867 130.697 8.184 132.384 8.184C135.113 8.184 137.214 8.85867 138.686 10.208C140.188 11.5267 140.94 13.6887 140.94 16.694V26.86C140.94 28.24 141.584 28.93 142.872 28.93H143.884L144.298 29.298C143.715 30.034 143.071 30.6013 142.366 31C141.691 31.3987 140.725 31.598 139.468 31.598C138.118 31.598 137.045 31.2913 136.248 30.678C135.481 30.034 134.975 29.1907 134.73 28.148C133.81 29.1293 132.859 29.9727 131.878 30.678C130.927 31.3527 129.685 31.69 128.152 31.69ZM130.958 28.884C131.571 28.884 132.138 28.746 132.66 28.47C133.212 28.1633 133.856 27.7033 134.592 27.09V19.362C134.285 19.4233 133.978 19.4847 133.672 19.546C133.365 19.6073 133.012 19.6687 132.614 19.73C131.203 20.098 130.068 20.7267 129.21 21.616C128.382 22.4747 127.968 23.64 127.968 25.112C127.968 26.3693 128.259 27.32 128.842 27.964C129.424 28.5773 130.13 28.884 130.958 28.884ZM153.984 31.69C152.022 31.69 150.488 31.1993 149.384 30.218C148.311 29.2367 147.774 27.6727 147.774 25.526V9.794H144.6V9.334L145.704 9.15C146.655 8.93533 147.468 8.62867 148.142 8.23C148.848 7.83133 149.538 7.29467 150.212 6.62L153.984 2.434H154.444L154.306 8.874H159.458V9.794H154.26V26.354C154.26 27.4273 154.49 28.24 154.95 28.792C155.441 29.344 156.054 29.62 156.79 29.62C157.434 29.62 158.002 29.4667 158.492 29.16C158.983 28.8227 159.474 28.378 159.964 27.826L160.424 28.286C159.811 29.3287 158.968 30.1567 157.894 30.77C156.821 31.3833 155.518 31.69 153.984 31.69ZM170.56 31.69C168.598 31.69 167.064 31.1993 165.96 30.218C164.887 29.2367 164.35 27.6727 164.35 25.526V9.794H161.176V9.334L162.28 9.15C163.231 8.93533 164.044 8.62867 164.718 8.23C165.424 7.83133 166.114 7.29467 166.788 6.62L170.56 2.434H171.02L170.882 8.874H176.034V9.794H170.836V26.354C170.836 27.4273 171.066 28.24 171.526 28.792C172.017 29.344 172.63 29.62 173.366 29.62C174.01 29.62 174.578 29.4667 175.068 29.16C175.559 28.8227 176.05 28.378 176.54 27.826L177 28.286C176.387 29.3287 175.544 30.1567 174.47 30.77C173.397 31.3833 172.094 31.69 170.56 31.69ZM189.853 8.184C191.846 8.184 193.548 8.598 194.959 9.426C196.369 10.2233 197.443 11.3273 198.179 12.738C198.945 14.118 199.329 15.6973 199.329 17.476C199.329 17.8133 199.313 18.166 199.283 18.534C199.252 18.8713 199.191 19.178 199.099 19.454H185.391C185.421 22.766 186.004 25.158 187.139 26.63C188.304 28.0713 190.021 28.792 192.291 28.792C193.824 28.792 195.066 28.5467 196.017 28.056C196.967 27.5653 197.857 26.8447 198.685 25.894L199.145 26.308C198.194 27.9947 196.921 29.3133 195.327 30.264C193.763 31.2147 191.877 31.69 189.669 31.69C187.491 31.69 185.559 31.23 183.873 30.31C182.186 29.3593 180.867 28.01 179.917 26.262C178.966 24.514 178.491 22.4287 178.491 20.006C178.491 17.4913 179.043 15.36 180.147 13.612C181.251 11.8333 182.661 10.484 184.379 9.564C186.127 8.644 187.951 8.184 189.853 8.184ZM189.715 9.104C188.825 9.104 188.059 9.38 187.415 9.932C186.801 10.4533 186.311 11.404 185.943 12.784C185.605 14.1333 185.421 16.05 185.391 18.534H193.257C193.563 15.1913 193.441 12.784 192.889 11.312C192.337 9.84 191.279 9.104 189.715 9.104ZM201.621 31V30.54L202.311 30.356C202.925 30.172 203.339 29.896 203.553 29.528C203.799 29.16 203.921 28.6847 203.921 28.102V13.704C203.921 13.0293 203.799 12.5387 203.553 12.232C203.339 11.8947 202.925 11.6647 202.311 11.542L201.621 11.358V10.898L209.533 8.23L209.993 8.69L210.407 12.646V13.014C210.837 12.1553 211.389 11.3733 212.063 10.668C212.769 9.932 213.535 9.334 214.363 8.874C215.222 8.414 216.065 8.184 216.893 8.184C218.059 8.184 218.948 8.506 219.561 9.15C220.175 9.794 220.481 10.6067 220.481 11.588C220.481 12.6307 220.175 13.4433 219.561 14.026C218.979 14.578 218.273 14.854 217.445 14.854C216.157 14.854 215.023 14.21 214.041 12.922L213.949 12.83C213.643 12.4007 213.29 12.1707 212.891 12.14C212.493 12.0787 212.125 12.2627 211.787 12.692C211.481 12.968 211.22 13.3053 211.005 13.704C210.821 14.072 210.637 14.5013 210.453 14.992V27.826C210.453 29.0527 210.99 29.8193 212.063 30.126L213.535 30.54V31H201.621ZM221.926 31V30.54L222.57 30.356C223.643 30.0493 224.18 29.298 224.18 28.102V13.704C224.18 13.0293 224.073 12.5387 223.858 12.232C223.643 11.8947 223.229 11.6647 222.616 11.542L221.926 11.358V10.898L229.792 8.23L230.252 8.69L230.62 11.45C231.693 10.4993 232.905 9.71733 234.254 9.104C235.603 8.49067 236.937 8.184 238.256 8.184C240.28 8.184 241.829 8.736 242.902 9.84C244.006 10.944 244.558 12.6307 244.558 14.9V28.148C244.558 29.344 245.141 30.0953 246.306 30.402L246.72 30.54V31H235.864V30.54L236.462 30.356C237.535 30.0187 238.072 29.2673 238.072 28.102V13.428C238.072 11.4653 237.091 10.484 235.128 10.484C233.779 10.484 232.307 11.1587 230.712 12.508V28.148C230.712 29.344 231.249 30.0953 232.322 30.402L232.736 30.54V31H221.926ZM256.478 31.69C254.975 31.69 253.626 31.506 252.43 31.138C251.234 30.8007 250.13 30.3713 249.118 29.85L249.164 24.376H249.624L251.188 27.136C251.862 28.3627 252.598 29.2827 253.396 29.896C254.224 30.4787 255.266 30.77 256.524 30.77C257.996 30.77 259.176 30.448 260.066 29.804C260.986 29.1293 261.446 28.24 261.446 27.136C261.446 26.124 261.124 25.296 260.48 24.652C259.836 24.008 258.64 23.4253 256.892 22.904L254.96 22.306C253.089 21.754 251.617 20.8953 250.544 19.73C249.47 18.5647 248.934 17.1387 248.934 15.452C248.934 13.428 249.731 11.7107 251.326 10.3C252.92 8.88933 255.205 8.184 258.18 8.184C259.376 8.184 260.495 8.322 261.538 8.598C262.611 8.84333 263.638 9.22667 264.62 9.748L264.344 14.716H263.884L262.274 11.864C261.691 10.852 261.108 10.1467 260.526 9.748C259.974 9.31867 259.13 9.104 257.996 9.104C256.953 9.104 255.972 9.39533 255.052 9.978C254.132 10.5607 253.672 11.3887 253.672 12.462C253.672 13.5047 254.055 14.3327 254.822 14.946C255.619 15.5593 256.784 16.1267 258.318 16.648L260.388 17.246C262.596 17.9207 264.175 18.856 265.126 20.052C266.076 21.2173 266.552 22.628 266.552 24.284C266.552 26.5227 265.662 28.3167 263.884 29.666C262.136 31.0153 259.667 31.69 256.478 31.69ZM96.012 77V76.54L96.84 76.264C97.4533 76.0493 97.8673 75.758 98.082 75.39C98.2967 75.022 98.404 74.5313 98.404 73.918C98.4347 72.078 98.45 70.2227 98.45 68.352C98.45 66.4813 98.45 64.6107 98.45 62.74V60.9C98.45 59.06 98.45 57.22 98.45 55.38C98.45 53.5093 98.4347 51.654 98.404 49.814C98.404 49.2007 98.312 48.71 98.128 48.342C97.9747 47.974 97.6067 47.6827 97.024 47.468L96.012 47.1V46.64H118.276L118.598 54.276H118.138L115.516 49.446C115.209 48.8633 114.857 48.4033 114.458 48.066C114.059 47.7287 113.507 47.56 112.802 47.56H105.396C105.365 49.7373 105.35 51.9607 105.35 54.23C105.35 56.4993 105.35 58.7533 105.35 60.992H110.134C110.839 60.992 111.361 60.8387 111.698 60.532C112.035 60.2253 112.357 59.7807 112.664 59.198L113.63 57.45H114.09V65.5H113.63L112.618 63.752C112.311 63.2 111.989 62.7553 111.652 62.418C111.345 62.0807 110.839 61.912 110.134 61.912H105.35C105.35 64.0587 105.35 66.1133 105.35 68.076C105.35 70.008 105.365 71.9093 105.396 73.78C105.396 74.976 105.979 75.758 107.144 76.126L108.524 76.54V77H96.012ZM129.974 77.69C127.643 77.69 125.619 77.2147 123.902 76.264C122.185 75.2827 120.851 73.9027 119.9 72.124C118.98 70.3453 118.52 68.26 118.52 65.868C118.52 63.476 119.011 61.406 119.992 59.658C121.004 57.91 122.369 56.5607 124.086 55.61C125.834 54.6593 127.797 54.184 129.974 54.184C132.151 54.184 134.099 54.6593 135.816 55.61C137.533 56.53 138.883 57.864 139.864 59.612C140.876 61.36 141.382 63.4453 141.382 65.868C141.382 68.2907 140.907 70.3913 139.956 72.17C139.036 73.918 137.717 75.2827 136 76.264C134.313 77.2147 132.305 77.69 129.974 77.69ZM129.974 76.77C131.047 76.77 131.906 76.4633 132.55 75.85C133.194 75.2367 133.654 74.148 133.93 72.584C134.237 71.02 134.39 68.812 134.39 65.96C134.39 63.0773 134.237 60.854 133.93 59.29C133.654 57.726 133.194 56.6373 132.55 56.024C131.906 55.4107 131.047 55.104 129.974 55.104C128.901 55.104 128.027 55.4107 127.352 56.024C126.708 56.6373 126.233 57.726 125.926 59.29C125.65 60.854 125.512 63.0773 125.512 65.96C125.512 68.812 125.65 71.02 125.926 72.584C126.233 74.148 126.708 75.2367 127.352 75.85C128.027 76.4633 128.901 76.77 129.974 76.77ZM143.402 77V76.54L144.092 76.356C144.706 76.172 145.12 75.896 145.334 75.528C145.58 75.16 145.702 74.6847 145.702 74.102V59.704C145.702 59.0293 145.58 58.5387 145.334 58.232C145.12 57.8947 144.706 57.6647 144.092 57.542L143.402 57.358V56.898L151.314 54.23L151.774 54.69L152.188 58.646V59.014C152.618 58.1553 153.17 57.3733 153.844 56.668C154.55 55.932 155.316 55.334 156.144 54.874C157.003 54.414 157.846 54.184 158.674 54.184C159.84 54.184 160.729 54.506 161.342 55.15C161.956 55.794 162.262 56.6067 162.262 57.588C162.262 58.6307 161.956 59.4433 161.342 60.026C160.76 60.578 160.054 60.854 159.226 60.854C157.938 60.854 156.804 60.21 155.822 58.922L155.73 58.83C155.424 58.4007 155.071 58.1707 154.672 58.14C154.274 58.0787 153.906 58.2627 153.568 58.692C153.262 58.968 153.001 59.3053 152.786 59.704C152.602 60.072 152.418 60.5013 152.234 60.992V73.826C152.234 75.0527 152.771 75.8193 153.844 76.126L155.316 76.54V77H143.402ZM167.817 77V76.54L169.197 76.172C170.27 75.8653 170.807 75.0987 170.807 73.872V65.132L163.217 49.676C162.941 49.0627 162.68 48.6027 162.435 48.296C162.22 47.9893 161.883 47.7287 161.423 47.514L160.595 47.1V46.64H172.923V47.1L172.095 47.422C171.42 47.698 171.052 48.0813 170.991 48.572C170.929 49.032 171.052 49.6147 171.359 50.32L176.787 62.372L182.859 49.86C183.104 49.3693 183.196 48.8633 183.135 48.342C183.104 47.8207 182.782 47.4833 182.169 47.33L181.525 47.1V46.64H187.045V47.1L186.171 47.422C185.588 47.6367 185.159 47.9433 184.883 48.342C184.607 48.71 184.331 49.1853 184.055 49.768L177.753 63.016V73.872C177.753 74.4853 177.86 74.9913 178.075 75.39C178.32 75.758 178.734 76.0187 179.317 76.172L180.743 76.54V77H167.817ZM195.38 77.69C193.05 77.69 191.026 77.2147 189.308 76.264C187.591 75.2827 186.257 73.9027 185.306 72.124C184.386 70.3453 183.926 68.26 183.926 65.868C183.926 63.476 184.417 61.406 185.398 59.658C186.41 57.91 187.775 56.5607 189.492 55.61C191.24 54.6593 193.203 54.184 195.38 54.184C197.558 54.184 199.505 54.6593 201.222 55.61C202.94 56.53 204.289 57.864 205.27 59.612C206.282 61.36 206.788 63.4453 206.788 65.868C206.788 68.2907 206.313 70.3913 205.362 72.17C204.442 73.918 203.124 75.2827 201.406 76.264C199.72 77.2147 197.711 77.69 195.38 77.69ZM195.38 76.77C196.454 76.77 197.312 76.4633 197.956 75.85C198.6 75.2367 199.06 74.148 199.336 72.584C199.643 71.02 199.796 68.812 199.796 65.96C199.796 63.0773 199.643 60.854 199.336 59.29C199.06 57.726 198.6 56.6373 197.956 56.024C197.312 55.4107 196.454 55.104 195.38 55.104C194.307 55.104 193.433 55.4107 192.758 56.024C192.114 56.6373 191.639 57.726 191.332 59.29C191.056 60.854 190.918 63.0773 190.918 65.96C190.918 68.812 191.056 71.02 191.332 72.584C191.639 74.148 192.114 75.2367 192.758 75.85C193.433 76.4633 194.307 76.77 195.38 76.77ZM216.955 77.69C215.759 77.69 214.655 77.46 213.643 77C212.662 76.54 211.88 75.804 211.297 74.792C210.745 73.7493 210.484 72.3847 210.515 70.698L210.653 58.876C210.653 58.1707 210.53 57.6647 210.285 57.358C210.04 57.0513 209.656 56.8367 209.135 56.714L208.583 56.53V56.07L216.817 54.46L217.277 54.92L217.047 61.452V72.538C217.047 73.5193 217.323 74.24 217.875 74.7C218.458 75.16 219.178 75.39 220.037 75.39C220.896 75.39 221.662 75.2673 222.337 75.022C223.012 74.7767 223.686 74.4087 224.361 73.918L224.545 58.922C224.545 58.2167 224.438 57.726 224.223 57.45C224.008 57.1433 223.61 56.9287 223.027 56.806L222.567 56.668V56.208L230.617 54.46L231.077 54.92L230.939 61.452V73.918C230.939 74.5927 231.031 75.114 231.215 75.482C231.399 75.85 231.798 76.1567 232.411 76.402L232.871 76.54V77L224.821 77.46L224.407 74.746C223.395 75.574 222.291 76.2793 221.095 76.862C219.93 77.414 218.55 77.69 216.955 77.69Z" fill="#121110"/>
<path d="M1.034 55V54.53L1.974 54.201C2.60067 54.013 3.008 53.731 3.196 53.355C3.41533 52.979 3.525 52.4777 3.525 51.851V27.223C3.525 26.5963 3.41533 26.095 3.196 25.719C2.97667 25.343 2.55367 25.0453 1.927 24.826L1.034 24.45V23.98H12.455C17.1237 23.98 20.492 24.8417 22.56 26.565C24.6593 28.257 25.709 30.4973 25.709 33.286C25.709 35.072 25.2703 36.717 24.393 38.221C23.547 39.6937 22.137 40.8687 20.163 41.746C18.189 42.6233 15.5257 43.062 12.173 43.062H10.575V51.71C10.575 52.932 11.186 53.731 12.408 54.107L13.818 54.53V55H1.034ZM10.575 42.122H12.361C13.8963 42.122 15.1497 41.8713 16.121 41.37C17.0923 40.8687 17.813 39.9913 18.283 38.738C18.753 37.4847 18.988 35.7457 18.988 33.521C18.988 31.265 18.7217 29.5103 18.189 28.257C17.6877 27.0037 16.9357 26.142 15.933 25.672C14.9303 25.1707 13.677 24.92 12.173 24.92H10.575V42.122ZM27.1502 55V54.53L27.9962 54.248C28.6229 54.0287 29.0459 53.731 29.2652 53.355C29.4845 52.979 29.5942 52.4777 29.5942 51.851C29.6255 49.971 29.6412 48.0753 29.6412 46.164C29.6412 44.2527 29.6412 42.3413 29.6412 40.43V38.55C29.6412 36.67 29.6412 34.79 29.6412 32.91C29.6412 30.9987 29.6255 29.103 29.5942 27.223C29.5942 26.5963 29.5002 26.095 29.3122 25.719C29.1555 25.343 28.7795 25.0453 28.1842 24.826L27.1502 24.45V23.98H49.8982L50.2272 31.782H49.7572L47.0782 26.847C46.7649 26.2517 46.4045 25.7817 45.9972 25.437C45.5899 25.0923 45.0259 24.92 44.3052 24.92H36.7382C36.7069 27.1447 36.6912 29.4163 36.6912 31.735C36.6912 34.0537 36.6912 36.3567 36.6912 38.644H41.5792C42.2999 38.644 42.8325 38.4873 43.1772 38.174C43.5219 37.8607 43.8509 37.4063 44.1642 36.811L45.1512 35.025H45.6212V43.25H45.1512L44.1172 41.464C43.8039 40.9 43.4749 40.4457 43.1302 40.101C42.8169 39.7563 42.2999 39.584 41.5792 39.584H36.6912C36.6912 41.7773 36.6912 43.8767 36.6912 45.882C36.6912 47.856 36.7069 49.7987 36.7382 51.71C36.7382 52.932 37.3335 53.731 38.5242 54.107L39.9342 54.53V55H27.1502ZM67.0639 55.846C64.6825 55.846 62.5675 55.423 60.7189 54.577C58.9015 53.731 57.4759 52.3993 56.4419 50.582C55.4392 48.7333 54.9379 46.305 54.9379 43.297V27.082C54.9379 25.8913 54.3269 25.108 53.1049 24.732L52.0709 24.45V23.98H65.0899V24.45L63.7269 24.826C62.5675 25.108 61.9879 25.8913 61.9879 27.176V44.519C61.9879 47.433 62.5989 49.595 63.8209 51.005C65.0429 52.3837 66.7975 53.073 69.0849 53.073C71.4662 53.073 73.3462 52.3367 74.7249 50.864C76.1349 49.3913 76.8399 47.3077 76.8399 44.613V27.364C76.8399 26.7373 76.7302 26.189 76.5109 25.719C76.3229 25.2177 75.9155 24.8887 75.2889 24.732L74.1139 24.45V23.98H80.6939V24.45L79.4249 24.779C78.8295 24.9043 78.4379 25.202 78.2499 25.672C78.0619 26.142 77.9679 26.6903 77.9679 27.317V44.519C77.9679 46.8063 77.5135 48.8117 76.6049 50.535C75.6962 52.227 74.4272 53.543 72.7979 54.483C71.1685 55.3917 69.2572 55.846 67.0639 55.846Z" fill="#A86E30"/>
</svg>
